<?xml version="1.0" encoding="UTF-8"?>
<svg xmlns="http://www.w3.org/2000/svg" viewBox="0 0 998 360" width="998" height="360">
  <rect width="100%" height="100%" fill="#0f172a"/>
  <line x1="80" y1="32" x2="80" y2="40" stroke="#f87171" stroke-width="1.2" opacity="0.25"/><line x1="102" y1="32" x2="102" y2="40" stroke="#f87171" stroke-width="1.2" opacity="0.25"/><line x1="124" y1="32" x2="124" y2="40" stroke="#f87171" stroke-width="1.2" opacity="0.25"/><line x1="459.5" y1="32" x2="459.5" y2="40" stroke="#34d399" stroke-width="1.2" opacity="0.55"/><line x1="459.5" y1="62" x2="146" y2="110" stroke="#f87171" stroke-width="1.4" opacity="0.4"/><line x1="459.5" y1="62" x2="283.5" y2="110" stroke="#34d399" stroke-width="1.4" opacity="0.8"/><line x1="283.5" y1="132" x2="201" y2="180" stroke="#34d399" stroke-width="1.4" opacity="0.8"/><line x1="201" y1="202" x2="168" y2="250" stroke="#f87171" stroke-width="1.4" opacity="0.4"/><line x1="201" y1="202" x2="190" y2="250" stroke="#34d399" stroke-width="1.4" opacity="0.8"/><line x1="201" y1="202" x2="212" y2="250" stroke="#f87171" stroke-width="1.4" opacity="0.4"/><line x1="201" y1="202" x2="234" y2="250" stroke="#f87171" stroke-width="1.4" opacity="0.4"/><line x1="283.5" y1="132" x2="256" y2="180" stroke="#f87171" stroke-width="1.4" opacity="0.4"/><line x1="283.5" y1="132" x2="311" y2="180" stroke="#34d399" stroke-width="1.4" opacity="0.8"/><line x1="311" y1="202" x2="278" y2="250" stroke="#f87171" stroke-width="1.4" opacity="0.4"/><line x1="311" y1="202" x2="300" y2="250" stroke="#34d399" stroke-width="1.4" opacity="0.8"/><line x1="311" y1="202" x2="322" y2="250" stroke="#34d399" stroke-width="1.4" opacity="0.8"/><line x1="311" y1="202" x2="344" y2="250" stroke="#34d399" stroke-width="1.4" opacity="0.8"/><line x1="283.5" y1="132" x2="366" y2="180" stroke="#f87171" stroke-width="1.4" opacity="0.4"/><line x1="459.5" y1="62" x2="470.5" y2="110" stroke="#34d399" stroke-width="1.4" opacity="0.8"/><line x1="470.5" y1="132" x2="388" y2="180" stroke="#f87171" stroke-width="1.4" opacity="0.4"/><line x1="470.5" y1="132" x2="443" y2="180" stroke="#34d399" stroke-width="1.4" opacity="0.8"/><line x1="443" y1="202" x2="410" y2="250" stroke="#34d399" stroke-width="1.4" opacity="0.8"/><line x1="443" y1="202" x2="432" y2="250" stroke="#34d399" stroke-width="1.4" opacity="0.8"/><line x1="443" y1="202" x2="454" y2="250" stroke="#34d399" stroke-width="1.4" opacity="0.8"/><line x1="443" y1="202" x2="476" y2="250" stroke="#f87171" stroke-width="1.4" opacity="0.4"/><line x1="470.5" y1="132" x2="498" y2="180" stroke="#f87171" stroke-width="1.4" opacity="0.4"/><line x1="470.5" y1="132" x2="553" y2="180" stroke="#34d399" stroke-width="1.4" opacity="0.8"/><line x1="553" y1="202" x2="520" y2="250" stroke="#f87171" stroke-width="1.4" opacity="0.4"/><line x1="553" y1="202" x2="542" y2="250" stroke="#f87171" stroke-width="1.4" opacity="0.4"/><line x1="553" y1="202" x2="564" y2="250" stroke="#f87171" stroke-width="1.4" opacity="0.4"/><line x1="553" y1="202" x2="586" y2="250" stroke="#34d399" stroke-width="1.4" opacity="0.8"/><line x1="459.5" y1="62" x2="773" y2="110" stroke="#34d399" stroke-width="1.4" opacity="0.8"/><line x1="773" y1="132" x2="641" y2="180" stroke="#34d399" stroke-width="1.4" opacity="0.8"/><line x1="641" y1="202" x2="608" y2="250" stroke="#f87171" stroke-width="1.4" opacity="0.4"/><line x1="641" y1="202" x2="630" y2="250" stroke="#f87171" stroke-width="1.4" opacity="0.4"/><line x1="641" y1="202" x2="652" y2="250" stroke="#f87171" stroke-width="1.4" opacity="0.4"/><line x1="641" y1="202" x2="674" y2="250" stroke="#34d399" stroke-width="1.4" opacity="0.8"/><line x1="773" y1="132" x2="729" y2="180" stroke="#34d399" stroke-width="1.4" opacity="0.8"/><line x1="729" y1="202" x2="696" y2="250" stroke="#34d399" stroke-width="1.4" opacity="0.8"/><line x1="729" y1="202" x2="718" y2="250" stroke="#f87171" stroke-width="1.4" opacity="0.4"/><line x1="729" y1="202" x2="740" y2="250" stroke="#34d399" stroke-width="1.4" opacity="0.8"/><line x1="729" y1="202" x2="762" y2="250" stroke="#34d399" stroke-width="1.4" opacity="0.8"/><line x1="773" y1="132" x2="817" y2="180" stroke="#34d399" stroke-width="1.4" opacity="0.8"/><line x1="817" y1="202" x2="784" y2="250" stroke="#34d399" stroke-width="1.4" opacity="0.8"/><line x1="817" y1="202" x2="806" y2="250" stroke="#34d399" stroke-width="1.4" opacity="0.8"/><line x1="817" y1="202" x2="828" y2="250" stroke="#f87171" stroke-width="1.4" opacity="0.4"/><line x1="817" y1="202" x2="850" y2="250" stroke="#34d399" stroke-width="1.4" opacity="0.8"/><line x1="773" y1="132" x2="905" y2="180" stroke="#34d399" stroke-width="1.4" opacity="0.8"/><line x1="905" y1="202" x2="872" y2="250" stroke="#34d399" stroke-width="1.4" opacity="0.8"/><line x1="905" y1="202" x2="894" y2="250" stroke="#34d399" stroke-width="1.4" opacity="0.8"/><line x1="905" y1="202" x2="916" y2="250" stroke="#34d399" stroke-width="1.4" opacity="0.8"/><line x1="905" y1="202" x2="938" y2="250" stroke="#34d399" stroke-width="1.4" opacity="0.8"/>
  <circle cx="80" cy="51" r="11" fill="rgb(220,151,34)" stroke="#f87171" stroke-width="1.2"/><text x="80" y="55" text-anchor="middle" font-size="12" font-weight="700" font-family="ui-monospace,Menlo,monospace" fill="#e2e8f0">0</text><circle cx="102" cy="51" r="11" fill="rgb(238,174,35)" stroke="#f87171" stroke-width="1.2"/><text x="102" y="55" text-anchor="middle" font-size="12" font-weight="700" font-family="ui-monospace,Menlo,monospace" fill="#e2e8f0">1</text><circle cx="124" cy="51" r="11" fill="rgb(220,151,34)" stroke="#f87171" stroke-width="1.2"/><text x="124" y="55" text-anchor="middle" font-size="12" font-weight="700" font-family="ui-monospace,Menlo,monospace" fill="#e2e8f0">2</text><circle cx="459.5" cy="51" r="11" fill="#34d399" stroke="#34d399" stroke-width="1.2"/><text x="459.5" y="55" text-anchor="middle" font-size="12" font-weight="700" font-family="ui-monospace,Menlo,monospace" fill="#042f2e">3</text><circle cx="146" cy="121" r="11" fill="rgb(225,157,35)" stroke="#f87171" stroke-width="1.2"/><text x="146" y="125" text-anchor="middle" font-size="12" font-weight="700" font-family="ui-monospace,Menlo,monospace" fill="#e2e8f0">0</text><circle cx="283.5" cy="121" r="11" fill="#34d399" stroke="#34d399" stroke-width="1.2"/><text x="283.5" y="125" text-anchor="middle" font-size="12" font-weight="700" font-family="ui-monospace,Menlo,monospace" fill="#042f2e">1</text><circle cx="201" cy="191" r="11" fill="#34d399" stroke="#34d399" stroke-width="1.2"/><text x="201" y="195" text-anchor="middle" font-size="12" font-weight="700" font-family="ui-monospace,Menlo,monospace" fill="#042f2e">0</text><circle cx="168" cy="261" r="11" fill="rgb(231,164,35)" stroke="#f87171" stroke-width="1.2"/><text x="168" y="265" text-anchor="middle" font-size="12" font-weight="700" font-family="ui-monospace,Menlo,monospace" fill="#e2e8f0">0</text><circle cx="190" cy="261" r="11" fill="#34d399" stroke="#34d399" stroke-width="1.2"/><text x="190" y="265" text-anchor="middle" font-size="12" font-weight="700" font-family="ui-monospace,Menlo,monospace" fill="#042f2e">1</text><circle cx="212" cy="261" r="11" fill="rgb(231,164,35)" stroke="#f87171" stroke-width="1.2"/><text x="212" y="265" text-anchor="middle" font-size="12" font-weight="700" font-family="ui-monospace,Menlo,monospace" fill="#e2e8f0">2</text><circle cx="234" cy="261" r="11" fill="rgb(249,188,36)" stroke="#f87171" stroke-width="1.2"/><text x="234" y="265" text-anchor="middle" font-size="12" font-weight="700" font-family="ui-monospace,Menlo,monospace" fill="#e2e8f0">3</text><circle cx="256" cy="191" r="11" fill="rgb(243,181,36)" stroke="#f87171" stroke-width="1.2"/><text x="256" y="195" text-anchor="middle" font-size="12" font-weight="700" font-family="ui-monospace,Menlo,monospace" fill="#e2e8f0">1</text><circle cx="311" cy="191" r="11" fill="#34d399" stroke="#34d399" stroke-width="1.2"/><text x="311" y="195" text-anchor="middle" font-size="12" font-weight="700" font-family="ui-monospace,Menlo,monospace" fill="#042f2e">2</text><circle cx="278" cy="261" r="11" fill="rgb(249,188,36)" stroke="#f87171" stroke-width="1.2"/><text x="278" y="265" text-anchor="middle" font-size="12" font-weight="700" font-family="ui-monospace,Menlo,monospace" fill="#e2e8f0">0</text><circle cx="300" cy="261" r="11" fill="#34d399" stroke="#34d399" stroke-width="1.2"/><text x="300" y="265" text-anchor="middle" font-size="12" font-weight="700" font-family="ui-monospace,Menlo,monospace" fill="#042f2e">1</text><circle cx="322" cy="261" r="11" fill="#34d399" stroke="#34d399" stroke-width="1.2"/><text x="322" y="265" text-anchor="middle" font-size="12" font-weight="700" font-family="ui-monospace,Menlo,monospace" fill="#042f2e">2</text><circle cx="344" cy="261" r="11" fill="#34d399" stroke="#34d399" stroke-width="1.2"/><text x="344" y="265" text-anchor="middle" font-size="12" font-weight="700" font-family="ui-monospace,Menlo,monospace" fill="#042f2e">3</text><circle cx="366" cy="191" r="11" fill="rgb(243,181,36)" stroke="#f87171" stroke-width="1.2"/><text x="366" y="195" text-anchor="middle" font-size="12" font-weight="700" font-family="ui-monospace,Menlo,monospace" fill="#e2e8f0">3</text><circle cx="470.5" cy="121" r="11" fill="#34d399" stroke="#34d399" stroke-width="1.2"/><text x="470.5" y="125" text-anchor="middle" font-size="12" font-weight="700" font-family="ui-monospace,Menlo,monospace" fill="#042f2e">2</text><circle cx="388" cy="191" r="11" fill="rgb(243,181,36)" stroke="#f87171" stroke-width="1.2"/><text x="388" y="195" text-anchor="middle" font-size="12" font-weight="700" font-family="ui-monospace,Menlo,monospace" fill="#e2e8f0">0</text><circle cx="443" cy="191" r="11" fill="#34d399" stroke="#34d399" stroke-width="1.2"/><text x="443" y="195" text-anchor="middle" font-size="12" font-weight="700" font-family="ui-monospace,Menlo,monospace" fill="#042f2e">1</text><circle cx="410" cy="261" r="11" fill="#34d399" stroke="#34d399" stroke-width="1.2"/><text x="410" y="265" text-anchor="middle" font-size="12" font-weight="700" font-family="ui-monospace,Menlo,monospace" fill="#042f2e">0</text><circle cx="432" cy="261" r="11" fill="#34d399" stroke="#34d399" stroke-width="1.2"/><text x="432" y="265" text-anchor="middle" font-size="12" font-weight="700" font-family="ui-monospace,Menlo,monospace" fill="#042f2e">1</text><circle cx="454" cy="261" r="11" fill="#34d399" stroke="#34d399" stroke-width="1.2"/><text x="454" y="265" text-anchor="middle" font-size="12" font-weight="700" font-family="ui-monospace,Menlo,monospace" fill="#042f2e">2</text><circle cx="476" cy="261" r="11" fill="rgb(249,188,36)" stroke="#f87171" stroke-width="1.2"/><text x="476" y="265" text-anchor="middle" font-size="12" font-weight="700" font-family="ui-monospace,Menlo,monospace" fill="#e2e8f0">3</text><circle cx="498" cy="191" r="11" fill="rgb(243,181,36)" stroke="#f87171" stroke-width="1.2"/><text x="498" y="195" text-anchor="middle" font-size="12" font-weight="700" font-family="ui-monospace,Menlo,monospace" fill="#e2e8f0">2</text><circle cx="553" cy="191" r="11" fill="#34d399" stroke="#34d399" stroke-width="1.2"/><text x="553" y="195" text-anchor="middle" font-size="12" font-weight="700" font-family="ui-monospace,Menlo,monospace" fill="#042f2e">3</text><circle cx="520" cy="261" r="11" fill="rgb(231,164,35)" stroke="#f87171" stroke-width="1.2"/><text x="520" y="265" text-anchor="middle" font-size="12" font-weight="700" font-family="ui-monospace,Menlo,monospace" fill="#e2e8f0">0</text><circle cx="542" cy="261" r="11" fill="rgb(249,188,36)" stroke="#f87171" stroke-width="1.2"/><text x="542" y="265" text-anchor="middle" font-size="12" font-weight="700" font-family="ui-monospace,Menlo,monospace" fill="#e2e8f0">1</text><circle cx="564" cy="261" r="11" fill="rgb(231,164,35)" stroke="#f87171" stroke-width="1.2"/><text x="564" y="265" text-anchor="middle" font-size="12" font-weight="700" font-family="ui-monospace,Menlo,monospace" fill="#e2e8f0">2</text><circle cx="586" cy="261" r="11" fill="#34d399" stroke="#34d399" stroke-width="1.2"/><text x="586" y="265" text-anchor="middle" font-size="12" font-weight="700" font-family="ui-monospace,Menlo,monospace" fill="#042f2e">3</text><circle cx="773" cy="121" r="11" fill="#34d399" stroke="#34d399" stroke-width="1.2"/><text x="773" y="125" text-anchor="middle" font-size="12" font-weight="700" font-family="ui-monospace,Menlo,monospace" fill="#042f2e">3</text><circle cx="641" cy="191" r="11" fill="#34d399" stroke="#34d399" stroke-width="1.2"/><text x="641" y="195" text-anchor="middle" font-size="12" font-weight="700" font-family="ui-monospace,Menlo,monospace" fill="#042f2e">0</text><circle cx="608" cy="261" r="11" fill="rgb(231,164,35)" stroke="#f87171" stroke-width="1.2"/><text x="608" y="265" text-anchor="middle" font-size="12" font-weight="700" font-family="ui-monospace,Menlo,monospace" fill="#e2e8f0">0</text><circle cx="630" cy="261" r="11" fill="rgb(249,188,36)" stroke="#f87171" stroke-width="1.2"/><text x="630" y="265" text-anchor="middle" font-size="12" font-weight="700" font-family="ui-monospace,Menlo,monospace" fill="#e2e8f0">1</text><circle cx="652" cy="261" r="11" fill="rgb(231,164,35)" stroke="#f87171" stroke-width="1.2"/><text x="652" y="265" text-anchor="middle" font-size="12" font-weight="700" font-family="ui-monospace,Menlo,monospace" fill="#e2e8f0">2</text><circle cx="674" cy="261" r="11" fill="#34d399" stroke="#34d399" stroke-width="1.2"/><text x="674" y="265" text-anchor="middle" font-size="12" font-weight="700" font-family="ui-monospace,Menlo,monospace" fill="#042f2e">3</text><circle cx="729" cy="191" r="11" fill="#34d399" stroke="#34d399" stroke-width="1.2"/><text x="729" y="195" text-anchor="middle" font-size="12" font-weight="700" font-family="ui-monospace,Menlo,monospace" fill="#042f2e">1</text><circle cx="696" cy="261" r="11" fill="#34d399" stroke="#34d399" stroke-width="1.2"/><text x="696" y="265" text-anchor="middle" font-size="12" font-weight="700" font-family="ui-monospace,Menlo,monospace" fill="#042f2e">0</text><circle cx="718" cy="261" r="11" fill="rgb(249,188,36)" stroke="#f87171" stroke-width="1.2"/><text x="718" y="265" text-anchor="middle" font-size="12" font-weight="700" font-family="ui-monospace,Menlo,monospace" fill="#e2e8f0">1</text><circle cx="740" cy="261" r="11" fill="#34d399" stroke="#34d399" stroke-width="1.2"/><text x="740" y="265" text-anchor="middle" font-size="12" font-weight="700" font-family="ui-monospace,Menlo,monospace" fill="#042f2e">2</text><circle cx="762" cy="261" r="11" fill="#34d399" stroke="#34d399" stroke-width="1.2"/><text x="762" y="265" text-anchor="middle" font-size="12" font-weight="700" font-family="ui-monospace,Menlo,monospace" fill="#042f2e">3</text><circle cx="817" cy="191" r="11" fill="#34d399" stroke="#34d399" stroke-width="1.2"/><text x="817" y="195" text-anchor="middle" font-size="12" font-weight="700" font-family="ui-monospace,Menlo,monospace" fill="#042f2e">2</text><circle cx="784" cy="261" r="11" fill="#34d399" stroke="#34d399" stroke-width="1.2"/><text x="784" y="265" text-anchor="middle" font-size="12" font-weight="700" font-family="ui-monospace,Menlo,monospace" fill="#042f2e">0</text><circle cx="806" cy="261" r="11" fill="#34d399" stroke="#34d399" stroke-width="1.2"/><text x="806" y="265" text-anchor="middle" font-size="12" font-weight="700" font-family="ui-monospace,Menlo,monospace" fill="#042f2e">1</text><circle cx="828" cy="261" r="11" fill="rgb(249,188,36)" stroke="#f87171" stroke-width="1.2"/><text x="828" y="265" text-anchor="middle" font-size="12" font-weight="700" font-family="ui-monospace,Menlo,monospace" fill="#e2e8f0">2</text><circle cx="850" cy="261" r="11" fill="#34d399" stroke="#34d399" stroke-width="1.2"/><text x="850" y="265" text-anchor="middle" font-size="12" font-weight="700" font-family="ui-monospace,Menlo,monospace" fill="#042f2e">3</text><circle cx="905" cy="191" r="11" fill="#34d399" stroke="#34d399" stroke-width="1.2"/><text x="905" y="195" text-anchor="middle" font-size="12" font-weight="700" font-family="ui-monospace,Menlo,monospace" fill="#042f2e">3</text><circle cx="872" cy="261" r="11" fill="#34d399" stroke="#34d399" stroke-width="1.2"/><text x="872" y="265" text-anchor="middle" font-size="12" font-weight="700" font-family="ui-monospace,Menlo,monospace" fill="#042f2e">0</text><circle cx="894" cy="261" r="11" fill="#34d399" stroke="#34d399" stroke-width="1.2"/><text x="894" y="265" text-anchor="middle" font-size="12" font-weight="700" font-family="ui-monospace,Menlo,monospace" fill="#042f2e">1</text><circle cx="916" cy="261" r="11" fill="#34d399" stroke="#34d399" stroke-width="1.2"/><text x="916" y="265" text-anchor="middle" font-size="12" font-weight="700" font-family="ui-monospace,Menlo,monospace" fill="#042f2e">2</text><circle cx="938" cy="261" r="11" fill="#34d399" stroke="#34d399" stroke-width="1.2"/><text x="938" y="265" text-anchor="middle" font-size="12" font-weight="700" font-family="ui-monospace,Menlo,monospace" fill="#042f2e">3</text>
  <text x="30" y="55" fill="#64748b" font-size="12" font-family="ui-monospace,Menlo,monospace">k=1</text><text x="30" y="125" fill="#64748b" font-size="12" font-family="ui-monospace,Menlo,monospace">k=2</text><text x="30" y="195" fill="#64748b" font-size="12" font-family="ui-monospace,Menlo,monospace">k=3</text><text x="30" y="265" fill="#64748b" font-size="12" font-family="ui-monospace,Menlo,monospace">k=4</text>
</svg>